HIERARCHY
ROOT Hips
{
	OFFSET 0.000000 0.000000 0.000000 
	CHANNELS 6 Xposition Yposition Zposition Yrotation Zrotation Xrotation 
	JOINT Lumbar
	{
		OFFSET 0.000000 0.000000 0.000000 
		CHANNELS 3 Zrotation Xrotation Yrotation
		JOINT Neck
		{
			OFFSET 0.000000 0.445665 0.000000 
			CHANNELS 3 Zrotation Xrotation Yrotation
			End Site
			{
				OFFSET 0.000000 0.227535 0.000000 
			}
		}
		JOINT RightShoulder
		{
			OFFSET 0.019635 0.377685 0.194865 
			CHANNELS 3 Zrotation Xrotation Yrotation
			JOINT RightElbow
			{
				OFFSET 0.000000 -0.243375 0.000000 
				CHANNELS 2 Zrotation Yrotation
				JOINT RightWrist
				{
					OFFSET 0.000000 -0.264825 0.000000 
					CHANNELS 2 Zrotation Xrotation
					End Site
					{
						OFFSET 0.006600 -0.176220 0.000990 
					}
				}
			}
		}
		JOINT LeftShoulder
		{
			OFFSET 0.019635 0.377685 -0.194865 
			CHANNELS 3 Zrotation Xrotation Yrotation
			JOINT LeftElbow
			{
				OFFSET 0.000000 -0.243375 0.000000 
				CHANNELS 2 Zrotation Yrotation
				JOINT LeftWrist
				{
					OFFSET 0.000000 -0.264825 0.000000 
					CHANNELS 2 Zrotation Xrotation
					End Site
					{
						OFFSET 0.006600 -0.176220 -0.000990 
					}
				}
			}
		}
	}
	JOINT RightHip
	{
		OFFSET 0.052140 -0.069960 0.075570 
		CHANNELS 3 Zrotation Xrotation Yrotation
		JOINT RightKnee
		{
			OFFSET 0.000000 -0.402270 0.000000 
			CHANNELS 1 Zrotation
			JOINT RightAnkle
			{
				OFFSET 0.000000 -0.404085 0.000000 
				CHANNELS 3 Zrotation Xrotation Yrotation
				End Site
				{
					OFFSET 0.204105 -0.089430 0.008415 
				}
			}
		}
	}
	JOINT LeftHip
	{
		OFFSET 0.052140 -0.069960 -0.075570 
		CHANNELS 3 Zrotation Xrotation Yrotation
		JOINT LeftKnee
		{
			OFFSET 0.000000 -0.402270 0.000000 
			CHANNELS 1 Zrotation
			JOINT LeftAnkle
			{
				OFFSET 0.000000 -0.404085 0.000000 
				CHANNELS 3 Zrotation Xrotation Yrotation
				End Site
				{
					OFFSET 0.204105 -0.089430 -0.008415 
				}
			}
		}
	}
}
MOTION
Frames: 25
Frame Time: 0.02
-2e-05 0 -0.00029 177.98678 -34.89072 -3.45217 42.7538 2.69859 -2.36076 -8.2162 -0.1424 -0.86135 85.28786 -96.99489 55.63412 5.78689 106.65205 11.99866 3.92497 73.372 100.18315 -55.6319 5.78799 -97.92233 11.51172 -1.26024 39.74895 -4.86124 -6.82521 -22.45187 -6.79154 -2.11271 -3.26986 43.49985 9.32653 3.2915 -28.05496 -6.48166 2.36192 3.34873
1e-05 -0 -0.0005 177.99064 -34.89804 -3.44844 42.76407 2.69558 -2.36299 -8.2108 -0.16959 -0.86217 85.14541 -97.02601 55.63412 5.78689 106.59674 11.99667 3.92287 73.04662 100.21271 -55.63189 5.78803 -97.88135 11.4809 -1.20836 39.75964 -4.85675 -6.85946 -22.45824 -6.79008 -2.11097 -3.26884 43.50754 9.3558 3.36265 -28.05095 -6.48174 2.35393 3.34707
4e-05 -1e-05 -0.00072 177.99452 -34.90532 -3.44472 42.77428 2.69259 -2.36522 -8.2054 -0.1967 -0.86299 85.00318 -97.05704 55.63412 5.78689 106.54154 11.99471 3.92073 72.72196 100.24222 -55.63188 5.78807 -97.84048 11.45015 -1.15658 39.77029 -4.8523 -6.89385 -22.4646 -6.78862 -2.10921 -3.26781 43.5152 9.38498 3.4336 -28.04694 -6.48181 2.34594 3.3454
8e-05 -1e-05 -0.00093 177.99838 -34.91261 -3.441 42.78451 2.68959 -2.36745 -8.20002 -0.22381 -0.8638 84.86113 -97.08806 55.63412 5.78689 106.48639 11.99273 3.91863 72.39754 100.27169 -55.63187 5.78811 -97.79963 11.41943 -1.10485 39.78094 -4.84783 -6.92804 -22.47096 -6.78717 -2.10746 -3.26679 43.52287 9.41416 3.50454 -28.04294 -6.48189 2.33797 3.34374
0.00011 -1e-05 -0.00115 178.00222 -34.91994 -3.43728 42.7948 2.68657 -2.36968 -8.19463 -0.25099 -0.86462 84.71892 -97.11917 55.63412 5.78689 106.43115 11.99073 3.91657 72.07249 100.3012 -55.63185 5.78815 -97.7587 11.38863 -1.05304 39.79165 -4.84328 -6.96196 -22.47732 -6.78572 -2.10575 -3.26578 43.53056 9.44341 3.57568 -28.03893 -6.48196 2.32999 3.34208
0.00014 -2e-05 -0.00136 178.00617 -34.92713 -3.43356 42.80484 2.68361 -2.37191 -8.18922 -0.27797 -0.86544 84.57667 -97.15 55.63412 5.78689 106.37604 11.98883 3.91428 71.74865 100.33069 -55.63184 5.78819 -97.71795 11.35797 -1.00132 39.80217 -4.83906 -6.99733 -22.48368 -6.78426 -2.10388 -3.2647 43.53816 9.47246 3.64623 -28.03495 -6.48204 2.32201 3.34041
0.00017 -2e-05 -0.00158 178.00988 -34.93459 -3.42983 42.81538 2.68055 -2.37414 -8.18385 -0.30532 -0.86626 84.43468 -97.18138 55.63412 5.78689 106.32074 11.98675 3.91245 71.42277 100.3602 -55.63183 5.78822 -97.67687 11.32709 -0.9495 39.81305 -4.8342 -7.0298 -22.49002 -6.78281 -2.10233 -3.26377 43.54594 9.50188 3.71787 -28.0309 -6.48211 2.31404 3.33876
0.00021 -3e-05 -0.00179 178.01382 -34.9418 -3.42612 42.82546 2.67758 -2.37637 -8.17846 -0.33232 -0.86708 84.29242 -97.21224 55.63412 5.78689 106.26558 11.98481 3.9102 71.09871 100.38968 -55.63182 5.78826 -97.63609 11.2964 -0.89772 39.82361 -4.82991 -7.06484 -22.49639 -6.78135 -2.10049 -3.26271 43.55356 9.53098 3.78857 -28.02692 -6.48218 2.30606 3.33708
0.00024 -3e-05 -0.002 178.01803 -34.94871 -3.42239 42.83499 2.67473 -2.37862 -8.17299 -0.35894 -0.86789 84.14983 -97.2425 55.63412 5.78689 106.21069 11.98314 3.90743 70.77695 100.41918 -55.63181 5.7883 -97.59569 11.26599 -0.84616 39.83376 -4.82641 -7.1035 -22.5028 -6.7799 -2.09826 -3.26145 43.56097 9.55961 3.85785 -28.023 -6.48227 2.29807 3.33539
0.00027 -3e-05 -0.00222 178.02069 -34.95735 -3.41867 42.84773 2.6712 -2.38078 -8.16778 -0.38792 -0.86873 84.00912 -97.27631 55.63412 5.78689 106.15457 11.98018 3.9076 70.44218 100.44872 -55.63179 5.78834 -97.55317 11.2341 -0.79384 39.84618 -4.81861 -7.12276 -22.509 -6.77845 -2.09815 -3.26122 43.56954 9.59072 3.93448 -28.01867 -6.48231 2.29012 3.33385
0.00031 -4e-05 -0.00243 178.02661 -34.96235 -3.41496 42.85366 2.66911 -2.38311 -8.16215 -0.41181 -0.8695 83.86451 -97.30259 55.63412 5.78689 106.10085 11.97981 3.90164 70.13478 100.47809 -55.63178 5.78838 -97.5151 11.20522 -0.74284 39.85387 -4.81972 -7.18203 -22.51561 -6.77699 -2.09367 -3.25887 43.5757 9.61672 3.99614 -28.01523 -6.48244 2.28209 3.33196
0.00037 -4e-05 -0.00259 178.04143 -34.95715 -3.41104 42.84102 2.67089 -2.38608 -8.15444 -0.42234 -0.87005 83.70915 -97.30813 55.63412 5.78689 106.05537 11.9877 3.8782 69.90453 100.50759 -55.63177 5.78842 -97.48943 11.18569 -0.69778 39.84813 -4.84689 -7.35937 -22.52354 -6.77542 -2.07633 -3.25021 43.57487 9.6274 4.0116 -28.01422 -6.48281 2.27403 3.32931
0.00045 -5e-05 -0.00275 178.05949 -34.94836 -3.40716 42.82155 2.67414 -2.38914 -8.14648 -0.42764 -0.87053 83.55036 -97.30606 55.63412 5.78689 106.01209 11.99799 3.84878 69.70194 100.53678 -55.63177 5.78846 -97.46822 11.169 -0.65371 39.83778 -4.88267 -7.57502 -22.53185 -6.77385 -2.05478 -3.23951 43.57174 9.63309 4.01265 -28.01412 -6.48326 2.26589 3.3263
0.00052 -6e-05 -0.00291 178.07618 -34.9413 -3.40342 42.8051 2.67675 -2.39208 -8.13922 -0.43492 -0.87103 83.39257 -97.30758 55.63411 5.7869 105.96658 12.00644 3.8225 69.48467 100.56578 -55.63177 5.7885 -97.44482 11.15025 -0.6075 39.82976 -4.91351 -7.76815 -22.53988 -6.77231 -2.03568 -3.23003 43.5699 9.64204 4.02404 -28.01363 -6.48367 2.2576 3.32332
0.00059 -6e-05 -0.00307 178.09265 -34.9337 -3.39904 42.78891 2.67921 -2.39552 -8.12947 -0.44385 -0.87156 83.23518 -97.30875 55.63415 5.78689 105.92582 12.01804 3.79429 69.27411 100.59633 -55.63173 5.78857 -97.42203 11.13466 -0.56796 39.82051 -4.94885 -7.9843 -22.54839 -6.77061 -2.01419 -3.21927 43.56688 9.64721 4.02073 -28.01301 -6.48412 2.24994 3.32082
0.00067 -7e-05 -0.00322 178.11007 -34.92654 -3.39595 42.77067 2.68236 -2.39772 -8.12489 -0.44813 -0.87202 83.07859 -97.30856 55.63409 5.7869 105.87627 12.02367 3.76884 69.05894 100.62338 -55.63178 5.78857 -97.39915 11.11326 -0.51534 39.81305 -4.97668 -8.15987 -22.55596 -6.76928 -1.99683 -3.21075 43.56596 9.65852 4.04298 -28.01288 -6.4845 2.24114 3.31733
0.00078 -6e-05 -0.00331 178.13161 -34.91995 -3.39691 42.74765 2.68675 -2.39852 -8.13432 -0.4405 -0.87227 82.90544 -97.30896 55.63376 5.78699 105.79705 12.01202 3.75139 68.80041 100.64259 -55.63209 5.78839 -97.37366 11.07403 -0.42132 39.80886 -4.98342 -8.22958 -22.561 -6.7688 -1.99054 -3.20824 43.56961 9.6929 4.15381 -28.01388 -6.48448 2.22778 3.31035
0.0009 -5e-05 -0.00338 178.1535 -34.9142 -3.3991 42.72296 2.69184 -2.39768 -8.14906 -0.4284 -0.87247 82.73782 -97.30776 55.63335 5.7871 105.70989 11.99426 3.73721 68.54081 100.65801 -55.63249 5.78817 -97.34811 11.02897 -0.31497 39.80716 -4.98211 -8.25499 -22.56504 -6.76873 -1.98873 -3.20813 43.57576 9.73279 4.28839 -28.01533 -6.4844 2.21355 3.30255
0.00101 -5e-05 -0.00346 178.17381 -34.90908 -3.40036 42.6996 2.69682 -2.3963 -8.16156 -0.4186 -0.87273 82.57929 -97.30567 55.633 5.7872 105.62951 11.97947 3.72217 68.2972 100.67399 -55.63284 5.78795 -97.32345 10.98735 -0.21769 39.80617 -4.98316 -8.28948 -22.56943 -6.7686 -1.98588 -3.2074 43.58191 9.76686 4.4023 -28.01656 -6.48445 2.20071 3.29569
0.00112 -4e-05 -0.00356 178.20048 -34.89961 -3.40307 42.67364 2.70101 -2.40046 -8.17319 -0.40761 -0.87283 82.36774 -97.31022 55.63256 5.78732 105.53561 11.96412 3.70397 67.98871 100.69472 -55.63323 5.78773 -97.29547 10.94276 -0.10613 39.79728 -4.98944 -8.36876 -22.57428 -6.76797 -1.97905 -3.20482 43.58319 9.81448 4.55646 -28.01786 -6.48405 2.1837 3.28645
0.00125 -3e-05 -0.0036 178.21366 -34.89941 -3.40319 42.65271 2.70694 -2.39257 -8.18808 -0.39794 -0.87325 82.2729 -97.30057 55.63229 5.78739 105.46822 11.94823 3.69359 67.81525 100.70483 -55.63355 5.7876 -97.27414 10.9026 -0.02095 39.80544 -4.98351 -8.34775 -22.57794 -6.76845 -1.98118 -3.20645 43.59521 9.83562 4.63378 -28.01915 -6.48458 2.17512 3.28193
0.00142 -2e-05 -0.0035 178.19187 -34.92486 -3.39466 42.64693 2.7178 -2.35279 -8.20911 -0.39447 -0.8745 82.45817 -97.25311 55.63256 5.78732 105.4737 11.93406 3.70075 68.01152 100.68504 -55.6337 5.78729 -97.27259 10.87901 -0.01554 39.86059 -4.93936 -8.02483 -22.5785 -6.77197 -2.01074 -3.22096 43.63667 9.77923 4.48318 -28.02003 -6.48781 2.19062 3.29115
0.00161 -1e-05 -0.00334 178.15607 -34.95959 -3.38371 42.64619 2.73028 -2.30076 -8.2336 -0.39221 -0.87609 82.76922 -97.19131 55.633 5.7872 105.50657 11.91907 3.71632 68.34478 100.65497 -55.63377 5.78748 -97.27719 10.85949 -0.03649 39.93275 -4.88422 -7.60828 -22.57791 -6.77657 -2.04854 -3.23931 43.68879 9.69662 4.25643 -28.02096 -6.49195 2.21451 3.30507
0.00179 0 -0.0032 178.12506 -34.98992 -3.37467 42.64259 2.74182 -2.25371 -8.25742 -0.38847 -0.87756 83.04831 -97.13541 55.63335 5.7871 105.52835 11.90347 3.73014 68.61666 100.6306 -55.63386 5.78732 -97.27841 10.83625 -0.04267 39.99682 -4.83846 -7.25877 -22.57789 -6.78059 -2.07998 -3.25463 43.73578 9.62805 4.071 -28.02206 -6.49559 2.23422 3.31654
0.00196 1e-05 -0.00308 178.10054 -35.02105 -3.36228 42.64121 2.75435 -2.20909 -8.27732 -0.38857 -0.8789 83.21754 -97.08192 55.63377 5.78699 105.544 11.89241 3.73523 68.88247 100.60178 -55.63402 5.78633 -97.28327 10.8209 -0.05976 40.06249 -4.77443 -6.80726 -22.57764 -6.78498 -2.1223 -3.27529 43.78407 9.55069 3.85768 -28.02231 -6.49963 2.25552 3.32929
